<svg id="Layer_1" data-name="Layer 1" xmlns="http://www.w3.org/2000/svg" viewBox="0 0 118.26 75.29"><defs><style>.cls-1{fill:#002b5c;}.cls-2{fill:#00b2dc;}</style></defs><path class="cls-1" d="M61.86,71.09a6.12,6.12,0,0,1-2.28-1.19l.86-2a6.62,6.62,0,0,0,2,1.09,7.12,7.12,0,0,0,2.39.42,4,4,0,0,0,2.23-.49,1.5,1.5,0,0,0,.73-1.3,1.29,1.29,0,0,0-.41-1,2.83,2.83,0,0,0-1-.59c-.42-.15-1-.31-1.72-.49a19.91,19.91,0,0,1-2.47-.75,4.07,4.07,0,0,1-1.62-1.17,3.18,3.18,0,0,1-.68-2.14,3.74,3.74,0,0,1,.6-2.07A4.13,4.13,0,0,1,62.28,58a7,7,0,0,1,3-.55,9.77,9.77,0,0,1,2.41.31,6.36,6.36,0,0,1,2,.91l-.78,2a7.81,7.81,0,0,0-1.83-.81,6.86,6.86,0,0,0-1.86-.27,3.79,3.79,0,0,0-2.18.51,1.58,1.58,0,0,0-.72,1.35,1.25,1.25,0,0,0,.41,1,2.92,2.92,0,0,0,1,.59c.42.14,1,.31,1.72.49a17.52,17.52,0,0,1,2.44.73,4.34,4.34,0,0,1,1.64,1.17,3.13,3.13,0,0,1,.67,2.12,3.71,3.71,0,0,1-.6,2.06A4.18,4.18,0,0,1,67.82,71a7.34,7.34,0,0,1-3,.55A9.62,9.62,0,0,1,61.86,71.09ZM82.13,60.88V71.35H79.86V70a3.7,3.7,0,0,1-1.46,1.11,4.8,4.8,0,0,1-1.92.38,5.33,5.33,0,0,1-2.66-.67A4.67,4.67,0,0,1,72,68.94a6.35,6.35,0,0,1,0-5.64,4.7,4.7,0,0,1,1.83-1.87,5.33,5.33,0,0,1,2.66-.67,4.51,4.51,0,0,1,1.82.36,3.81,3.81,0,0,1,1.44,1V60.88Zm-3.21,7.61a3.71,3.71,0,0,0,0-4.75,3.07,3.07,0,0,0-4.34,0,3.74,3.74,0,0,0,0,4.75,3.07,3.07,0,0,0,4.34,0Zm7.32-8.16V61H89v2H86.29v8.43H83.91V60.29a3.63,3.63,0,0,1,1-2.64,4.29,4.29,0,0,1,4.85-.42L89,59.08a2.07,2.07,0,0,0-1.3-.43Q86.24,58.65,86.24,60.33ZM98,68.27l1.26,1.51a4.16,4.16,0,0,1-1.71,1.28,6.33,6.33,0,0,1-2.37.43,6.13,6.13,0,0,1-3-.69,4.83,4.83,0,0,1-2-1.91,5.46,5.46,0,0,1-.7-2.77,5.64,5.64,0,0,1,.68-2.76,4.84,4.84,0,0,1,1.87-1.91,5.27,5.27,0,0,1,2.7-.69,5.41,5.41,0,0,1,2.6.64,4.65,4.65,0,0,1,1.86,1.82A5.43,5.43,0,0,1,100,66l-7.8,1.57a2.75,2.75,0,0,0,1.16,1.37,3.78,3.78,0,0,0,1.93.47A3.68,3.68,0,0,0,98,68.27ZM92.7,63.61A3.36,3.36,0,0,0,91.89,66v0l5.76-1.14a2.77,2.77,0,0,0-1-1.55,2.88,2.88,0,0,0-1.82-.59A2.75,2.75,0,0,0,92.7,63.61Zm14.51,7.17a2.75,2.75,0,0,1-1,.53,4.48,4.48,0,0,1-1.27.18A3.18,3.18,0,0,1,101.41,68V58.57h2.38V61h2.73v2h-2.73v5a1.66,1.66,0,0,0,.37,1.17,1.39,1.39,0,0,0,1,.4,2.11,2.11,0,0,0,1.34-.43Zm11.05-9.9v8.88c0,3.69-1.77,5.53-5.29,5.53a9.3,9.3,0,0,1-2.66-.38,5.62,5.62,0,0,1-2.09-1.11L109.29,72a4.77,4.77,0,0,0,1.58.9,5.86,5.86,0,0,0,2,.33,3.07,3.07,0,0,0,2.3-.77,3.36,3.36,0,0,0,.73-2.38v-.49a3.84,3.84,0,0,1-1.39,1,4.74,4.74,0,0,1-1.78.34,4.37,4.37,0,0,1-3.21-1.16,4.68,4.68,0,0,1-1.18-3.47V60.88h2.39v5.06a3.09,3.09,0,0,0,.62,2.09,2.25,2.25,0,0,0,1.77.69,2.64,2.64,0,0,0,2-.8,3.3,3.3,0,0,0,.75-2.33V60.88Z" transform="translate(0 0)"/><path class="cls-2" d="M3.48,70.63A6.44,6.44,0,0,1,.93,68.11,7.1,7.1,0,0,1,0,64.49a7,7,0,0,1,.94-3.63A6.66,6.66,0,0,1,3.5,58.34a7.36,7.36,0,0,1,3.66-.91,7.46,7.46,0,0,1,3,.59,6.14,6.14,0,0,1,2.29,1.7l-1.6,1.55a4.63,4.63,0,0,0-3.57-1.6,4.88,4.88,0,0,0-2.46.61A4.39,4.39,0,0,0,3.11,62a5.39,5.39,0,0,0,0,5,4.37,4.37,0,0,0,1.7,1.71,4.89,4.89,0,0,0,2.46.62,4.59,4.59,0,0,0,3.57-1.63l1.6,1.57A6,6,0,0,1,10.14,71a7.54,7.54,0,0,1-3,.59A7.37,7.37,0,0,1,3.48,70.63Zm20.07-9.75v8.88c0,3.69-1.77,5.53-5.29,5.53a9.3,9.3,0,0,1-2.66-.38,5.62,5.62,0,0,1-2.09-1.11L14.58,72a4.77,4.77,0,0,0,1.58.9,5.86,5.86,0,0,0,2,.33,3.07,3.07,0,0,0,2.3-.77A3.36,3.36,0,0,0,21.16,70v-.49a3.84,3.84,0,0,1-1.39,1,4.74,4.74,0,0,1-1.78.34,4.37,4.37,0,0,1-3.21-1.16,4.68,4.68,0,0,1-1.18-3.47V60.88H16v5.06A3.09,3.09,0,0,0,16.61,68a2.24,2.24,0,0,0,1.76.69,2.65,2.65,0,0,0,2-.8,3.3,3.3,0,0,0,.75-2.33V60.88Zm10.35.55a4.71,4.71,0,0,1,1.85,1.88,6.31,6.31,0,0,1,0,5.62,4.68,4.68,0,0,1-1.85,1.89,5.33,5.33,0,0,1-2.66.67,4.72,4.72,0,0,1-1.91-.38A3.63,3.63,0,0,1,27.87,70v1.35H25.59V56.8H28v5.36a4,4,0,0,1,1.44-1,4.51,4.51,0,0,1,1.82-.36A5.33,5.33,0,0,1,33.9,61.43Zm-.76,7.06a3.74,3.74,0,0,0,0-4.75,2.84,2.84,0,0,0-2.16-.9,3.08,3.08,0,0,0-1.55.4,2.88,2.88,0,0,0-1.09,1.15,3.92,3.92,0,0,0,0,3.45A2.88,2.88,0,0,0,29.43,69a3,3,0,0,0,1.55.4A2.84,2.84,0,0,0,33.14,68.49Zm12.78-.22,1.25,1.51a4.16,4.16,0,0,1-1.71,1.28,6.33,6.33,0,0,1-2.37.43,6.16,6.16,0,0,1-3-.69,4.83,4.83,0,0,1-2-1.91,5.46,5.46,0,0,1-.7-2.77,5.64,5.64,0,0,1,.68-2.76A4.84,4.84,0,0,1,40,61.45a5.27,5.27,0,0,1,2.7-.69,5.41,5.41,0,0,1,2.6.64,4.65,4.65,0,0,1,1.86,1.82A5.43,5.43,0,0,1,47.86,66l-7.8,1.57a2.75,2.75,0,0,0,1.16,1.37,3.81,3.81,0,0,0,1.93.47A3.7,3.7,0,0,0,45.92,68.27Zm-5.34-4.66A3.36,3.36,0,0,0,39.77,66v0l5.76-1.14a2.77,2.77,0,0,0-1-1.55,2.88,2.88,0,0,0-1.82-.59A2.75,2.75,0,0,0,40.58,63.61Zm14.8-2.85V63.1a3.12,3.12,0,0,0-2.73.77,3.4,3.4,0,0,0-.78,2.4v5.08H49.48V60.88h2.27v1.53A3.94,3.94,0,0,1,55.38,60.76Z" transform="translate(0 0)"/><path class="cls-1" d="M76.47,18.53a1.52,1.52,0,0,0-.75-1.3L59.89,8.1a1.49,1.49,0,0,0-1.5,0l-14,8.15-.12.07a4.1,4.1,0,0,0-2.08,4A8.45,8.45,0,0,0,46.26,27l-3.72,2.16a1.5,1.5,0,0,0-.74,1.3,1.47,1.47,0,0,0,.75,1.29l15.82,9.13.28.12.11,0a1.29,1.29,0,0,0,.79,0l.3-.12,14-8.15.09-.07a4.43,4.43,0,0,0,2-4.36,7.28,7.28,0,0,0-3.55-5.88l-.56-.32,3.89-2.26A1.49,1.49,0,0,0,76.47,18.53ZM49.24,28.71C52,30.28,55.77,32.49,57,33.17a4.29,4.29,0,0,1,2,3.39s0,.09,0,.13a2.18,2.18,0,0,1-.22,1l-12.5-7.22ZM70.1,24.56l.8.46a4.28,4.28,0,0,1,2,3.38,1.69,1.69,0,0,0,0,.23s.13,1.12-.52,1.47l0,0h0L62,36.18a7.34,7.34,0,0,0-3.52-5.62c-1.92-1.09-10.59-6.11-10.59-6.11a5.52,5.52,0,0,1-2.69-4.17,2.37,2.37,0,0,1,.13-.9L60.2,28a1.43,1.43,0,0,0,.75.2,1.53,1.53,0,0,0,.75-.2l7.13-4.15ZM60.94,25,48.11,17.54l11-6.41L72,18.54Z" transform="translate(0 0)"/><path class="cls-2" d="M62.94,48.12l14.58-8.41A7.77,7.77,0,0,0,81.4,33a1.5,1.5,0,0,0-3,0A4.76,4.76,0,0,1,76,37.11L61.44,45.53a4.79,4.79,0,0,1-4.75,0L42.12,37.11A4.76,4.76,0,0,1,39.74,33V16.16a4.76,4.76,0,0,1,2.38-4.11L56.69,3.63a4.79,4.79,0,0,1,4.75,0L76,12.05a4.76,4.76,0,0,1,2.38,4.11,1.5,1.5,0,0,0,3,0,7.77,7.77,0,0,0-3.88-6.71L62.94,1a7.82,7.82,0,0,0-7.75,0L40.62,9.45a7.77,7.77,0,0,0-3.88,6.71V33a7.77,7.77,0,0,0,3.88,6.71l14.57,8.41a7.74,7.74,0,0,0,7.75,0Z" transform="translate(0 0)"/></svg>